<html>
<head>
<meta charset="UTF-8">
<meta name="viewport" content="width=device-width, initial-scale=1.0"/>

<style>
.comment
{
    padding-left: 20px;
    margin-top: 4px;
    margin-right: 4px;
    margin-bottom: 4px;
    border: 2px #000 solid;
}
.submission
{
    border: 4px #00f solid;
    padding-left: 20px;
}
.hidden
{
    display: none;
}
</style>
</head>
<body><div class="submission" id="t3_67ilse">
    <p class="userinfo">
        <a href="https://www.reddit.com/u/TheMrMcGibblets">TheMrMcGibblets</a>
        <span class="score"> | 14 points</span>
        <span class="timestamp"> | Apr 25 2017 18:48:30</span>
    </p>
    <strong>[MOVIE] Daredevil 2003 Directors Cut 1080p BluRay H264 AAC [2.54GB]</strong>
    <p><p>Add mega</p>
<p>.nz/#!AvJU0AoJ</p>
<p>!rirvx4Qzk8boZJYTLNsEVeLts4Iuc-H5YJ9cNbLHdcg</p>
<pre><code>Video
ID                                       : 1
Format                                   : AVC
Format/Info                              : Advanced Video Codec
Format profile                           : High@L4.1
Format settings, CABAC                   : Yes
Format settings, ReFrames                : 4 frames
Codec ID                                 : avc1
Codec ID/Info                            : Advanced Video Coding
Duration                                 : 2h 13mn
Bit rate                                 : 2 500 Kbps
Width                                    : 1 920 pixels
Height                                   : 816 pixels
Display aspect ratio                     : 2.35:1
Frame rate mode                          : Constant
Frame rate                               : 23.976 fps
Color space                              : YUV
Chroma subsampling                       : 4:2:0
Bit depth                                : 8 bits
Scan type                                : Progressive
Bits/(Pixel*Frame)                       : 0.067
Stream size                              : 2.32 GiB (92%)
Writing library                          : x264 core 142 r2453kMod ea0ca51
Encoding settings                        : cabac=1 / ref=4 / deblock=1:-1:-1 / analyse=0x3:0x113 / me=umh / subme=9 / psy=1 / fade_compensate=0.00 / psy_rd=1.00:0.15 / mixed_ref=1 / me_range=24 / chroma_me=1 / trellis=2 / 8x8dct=1 / cqm=0 / deadzone=21,11 / fast_pskip=1 / chroma_qp_offset=-3 / threads=12 / lookahead_threads=4 / sliced_threads=0 / nr=0 / decimate=1 / interlaced=0 / bluray_compat=0 / constrained_intra=0 / fgo=0 / bframes=3 / b_pyramid=2 / b_adapt=1 / b_bias=0 / direct=1 / weightb=1 / open_gop=0 / weightp=2 / keyint=250 / keyint_min=25 / scenecut=40 / intra_refresh=0 / rc_lookahead=50 / rc=2pass / mbtree=1 / bitrate=2500 / ratetol=1.0 / qcomp=0.60 / qpmin=0 / qpmax=69 / qpstep=4 / cplxblur=20.0 / qblur=0.5 / vbv_maxrate=31250 / vbv_bufsize=31250 / nal_hrd=none / filler=0 / ip_ratio=1.40 / aq=3:1.00

Audio
ID                                       : 2
Format                                   : AAC
Format/Info                              : Advanced Audio Codec
Format profile                           : LC
Codec ID                                 : 40
Duration                                 : 2h 13mn
Bit rate mode                            : Constant
Bit rate                                 : 224 Kbps
Channel(s)                               : 6 channels
Channel positions                        : Front: L C R, Side: L R, LFE
Sampling rate                            : 48.0 KHz
Compression mode                         : Lossy
Stream size                              : 213 MiB (8%)
Language                                 : English

Uploaded per a request on this weeks request thread
</code></pre></p>
    <p class="toolbar">
        <a href="https://www.reddit.com/r/megalinks/comments/67ilse">permalink</a>
    </p>
</div>
<div class="comment" id="t1_dgqnumd">
    <p class="userinfo">
        <a
        class="toggle_hide_button"
        href="javascript:void(0)"
        onclick="toggle_collapse(this.parentElement.parentElement)">[-]
        </a>
        <a href="https://www.reddit.com/u/boltrop">boltrop</a>
        <span class="score"> | 2 points</span>
        <span class="timestamp"> | Apr 25 2017 18:52:08</span>
    </p>
    <div class="collapsible">
        <h3><a href="https://images-na.ssl-images-amazon.com/images/M/MV5BMjYwZDNhMTgtNjEwNS00Y2Y0LTkxYjMtY2MyYTM0NDE1N2ZlXkEyXkFqcGdeQXVyMTQxNzMzNDI@._V1_.jpg">Daredevil</a> (2003)</h3>
<p><strong>Genre</strong>: Action, Crime, Drama, Sci-Fi, Thriller</p>
<p><strong>Rating</strong>:  5.3 (181929 votes)</p>
<p><strong>Certification</strong>: TV-14</p>
<p><strong>Runtime</strong>: 133 min</p>
<hr>
<blockquote>
<p><strong>Director(s)</strong>: <a href="https://www.imdb.com/name/nm0425756/">Mark Steven Johnson</a></p>
<p><strong>Writer(s)</strong>: <a href="https://www.imdb.com/name/nm0425756/">Mark Steven Johnson</a></p>
<p><strong>Cast</strong>: <a href="https://www.imdb.com/name/nm0000255/">Ben Affleck</a>, <a href="https://www.imdb.com/name/nm0004950/">Jennifer Garner</a>, <a href="https://www.imdb.com/name/nm0268199/">Colin Farrell</a>, <a href="https://www.imdb.com/name/nm0003817/">Michael Clarke Duncan</a></p>
<p><strong>Plot</strong>: A man blinded by toxic waste which also enhanced his remaining senses fights crime as an acrobatic martial arts superhero.</p>
</blockquote>
<hr>
<p>^This ^summary ^is ^taken ^from <a href="https://www.imdb.com/title/tt0287978/">^imdb.com</a> ^| ^For ^feedback ^or ^suggestions ^contact <a href="http://www.reddit.com/message/compose/?to=indigo6alpha">^/u/indigo6alpha</a></p>
        <p class="toolbar">
            <a href="https://www.reddit.com/r/megalinks/comments/67ilse/_/dgqnumd">permalink</a>
        </p>
        
    </div>
</div>

<div class="comment" id="t1_dgqo76l">
    <p class="userinfo">
        <a
        class="toggle_hide_button"
        href="javascript:void(0)"
        onclick="toggle_collapse(this.parentElement.parentElement)">[-]
        </a>
        <a href="https://www.reddit.com/u/SubZorro">SubZorro</a>
        <span class="score"> | 1 points</span>
        <span class="timestamp"> | Apr 25 2017 18:58:06</span>
    </p>
    <div class="collapsible">
        <h5>Subtitles for this movie:</h5>
<hr>
<blockquote>
<ul>
<li>
<p><strong>Daredevil-DVL-Relase</strong> - <code>1 CD</code> - <a href="http://dl.opensubtitles.org/en/download/vrf-a5501180/sub/128307">Download Subtitle</a></p>
</li>
<li>
<p><strong>Daredevil.Directors.Cut.2003.720p.BrRip.x264.YIFY+HI</strong> - <code>1 CD</code> - <a href="http://dl.opensubtitles.org/en/download/vrf-6ae4c0cf/sub/6179992">Download Subtitle</a></p>
</li>
<li>
<p><strong>Daredevil DC 2002 720p BluRay x264-SEPTiC</strong> - <code>1 CD</code> - <a href="http://dl.opensubtitles.org/en/download/vrf-73b4f580/sub/3335835">Download Subtitle</a></p>
</li>
</ul>
</blockquote>
<hr>
<p>^This ^list ^of ^subtitles ^are ^taken ^from <a href="http://www.opensubtitles.org">^opensubtitles.org</a> ^| ^For ^feedback ^or ^suggestions ^contact <a href="http://www.reddit.com/message/compose/?to=indigo6alpha">^/u/indigo6alpha</a></p>
        <p class="toolbar">
            <a href="https://www.reddit.com/r/megalinks/comments/67ilse/_/dgqo76l">permalink</a>
        </p>
        
    </div>
</div>
</body>

<script>
function toggle_collapse(comment_div)
{
    var button = comment_div.getElementsByClassName("toggle_hide_button")[0];
    var collapsible = comment_div.getElementsByClassName("collapsible")[0];
    if (collapsible.classList.contains("hidden"))
    {
        collapsible.classList.remove("hidden");
        button.innerText = "[-]";
    }
    else
    {
        collapsible.classList.add("hidden");
        button.innerText = "[+]";
    }
}
</script>
</html>
